<svg width="3095" height="630" viewBox="0 0 3095 630" fill="none" xmlns="http://www.w3.org/2000/svg">
<path d="M0.925087 121.897L20.6033 9.72355H355.563L335.884 121.897H235.397L148.085 619.606H14.101L101.413 121.897H0.925087ZM462.943 510.261H611.282L592.1 619.606H309.777L416.767 9.72355H699.09L680.239 117.184H531.9L506.764 260.464H645.533L627.343 364.153H488.574L462.943 510.261ZM1024.65 619.606H890.67L979.47 113.413C980.352 108.386 979.209 103.987 976.043 100.216C973.514 96.4456 969.698 94.5604 964.594 94.5604H912.914C907.81 94.5604 903.013 96.4456 898.524 100.216C894.672 103.987 892.305 108.386 891.423 113.413L802.623 619.606H668.64L755.455 124.725C770.007 41.773 816.84 0.297242 895.955 0.297242H1014.63C1093.74 0.297242 1126.02 41.773 1111.47 124.725L1024.65 619.606ZM1536.92 169.971H1409.63L1418.06 121.897C1418.95 116.869 1417.8 112.47 1414.64 108.7C1412.11 104.929 1408.29 103.044 1403.19 103.044H1350.55C1345.45 103.044 1340.65 104.929 1336.16 108.7C1332.31 112.47 1329.94 116.869 1329.06 121.897L1310.04 230.299C1309.16 235.327 1309.99 239.726 1312.51 243.496C1315.68 247.267 1319.82 249.152 1324.92 249.152H1411.05C1489.95 250.409 1522.23 291.885 1507.9 373.579L1484.91 504.605C1470.36 587.557 1423.53 629.033 1344.41 629.033H1231.48C1152.37 629.033 1120.09 587.557 1134.64 504.605L1145.72 441.449H1273L1261.1 509.318C1260.21 514.346 1261.04 518.745 1263.57 522.515C1266.73 526.286 1270.87 528.171 1275.97 528.171H1335.31C1340.41 528.171 1344.89 526.286 1348.74 522.515C1353.23 518.745 1355.92 514.346 1356.8 509.318L1377.8 389.604C1378.68 384.577 1377.54 380.178 1374.37 376.407C1371.84 372.637 1368.03 370.751 1362.92 370.751H1276.79C1197.68 370.751 1165.4 329.276 1179.95 246.324L1201.28 124.725C1215.83 41.773 1262.67 0.297242 1341.78 0.297242H1448.01C1527.12 0.297242 1559.4 41.773 1544.85 124.725L1536.92 169.971ZM1793.76 9.72355L1686.77 619.606H1552.79L1659.78 9.72355H1793.76ZM2009.82 377.35L2026.85 280.259H2203.9L2164.54 504.605C2149.99 587.557 2103.16 629.033 2024.04 629.033H1903.46C1824.34 629.033 1792.06 587.557 1806.61 504.605L1873.25 124.725C1887.81 41.773 1934.64 0.297242 2013.75 0.297242H2134.34C2213.45 0.297242 2245.73 41.773 2231.18 124.725L2221.1 182.225H2093.81L2106.71 108.7C2107.59 103.672 2106.45 99.2735 2103.28 95.503C2100.75 91.7325 2096.94 89.8472 2091.83 89.8472H2031.54C2026.44 89.8472 2021.64 91.7325 2017.15 95.503C2013.3 99.2735 2010.93 103.672 2010.05 108.7L1937.95 519.687C1937.07 524.715 1937.89 529.114 1940.42 532.884C1943.59 536.655 1947.72 538.54 1952.83 538.54H2013.12C2018.22 538.54 2022.7 536.655 2026.55 532.884C2031.04 529.114 2033.73 524.715 2034.61 519.687L2059.58 377.35H2009.82ZM2394.21 380.178L2352.21 619.606H2218.22L2325.21 9.72355H2459.2L2414.38 265.177H2520.61L2565.43 9.72355H2699.41L2592.42 619.606H2458.44L2500.44 380.178H2394.21ZM2740.23 121.897L2759.9 9.72355H3094.86L3075.19 121.897H2974.7L2887.39 619.606H2753.4L2840.71 121.897H2740.23Z" fill="#0A0A0A"/>
</svg>
