<svg width="2884" height="1733" viewBox="0 0 2884 1733" fill="none"
    xmlns="http://www.w3.org/2000/svg">
    <path d="M1583.25 150H428.386L365.031 499.895H747.743L740.291 534.098H357.578L293.389 888.598H676.101C596.098 1123.83 244.16 1123.83 244.16 1123.83L181.733 1468.6C181.733 1468.6 676.101 1468.6 791.098 1172.1C910.598 1468.6 1336.6 1468.6 1336.6 1468.6L1400.6 1118.6C1248.67 1136.87 996.598 1057.6 1034.71 888.598H1448.25L1512.44 534.098H1098.9L1106.35 499.895H1519.9L1583.25 150Z" fill="black"/>
    <path d="M2083.83 539.718H1549.56L1485.99 887.72H2020.26L1991.48 1035.94L1444.79 1113.28L1407.22 1319L1379.6 1470.2L1924.04 1398.32L1909.18 1478.13L1790.23 1582.6H1889.74H2300.3L2343.82 1341.31L2563.43 1312.56L2629.26 952.165L2408.64 981.908L2424.82 887.72H2641.03L2704.6 539.718H2488.39L2508.34 437.598H2102.27L2083.83 539.718Z" fill="black"/>
    <path d="M1631.42 439.718H1999.27L2017.72 337.598H2628.76L2608.81 439.718H2823.52L2647.7 1402.25L2428.26 1430.98L2382.88 1682.6H1523.81L1698.97 1528.77L1397.31 1568.6L1259.85 1563.76C1258.63 1563.63 1257.4 1563.49 1256.15 1563.36C1210.04 1558.25 1146.67 1547.99 1078.47 1527.18C985.418 1498.78 873.808 1447.54 788.915 1354.79C696.601 1450.16 570.291 1500.7 468.235 1528.11C392.389 1548.49 321.227 1558.51 269.354 1563.51C200.028 1570.18 130.564 1568.6 61 1568.6L343.867 50H1701.98L1631.42 439.718Z" stroke="black" stroke-width="100"/>
</svg>
